<svg id="Layer_1" data-name="Layer 1" xmlns="http://www.w3.org/2000/svg" viewBox="0 0 425.2 425.2"><defs><style>.cls-1{fill:#ffffff;}</style></defs><path class="cls-1" d="M52.31,373.12H63.46c8.26,0,13.91,5.1,13.91,12.75s-5.65,12.75-13.91,12.75H52.31Zm10.93,21.49c5.68,0,9.36-3.46,9.36-8.74s-3.68-8.74-9.36-8.74H57.05v17.48Z"/><path class="cls-1" d="M137.92,394.64v4H118.8v-25.5h18.61v4H123.53v6.63h12.31v3.9H123.53v7Z"/><path class="cls-1" d="M177.45,395.92l1.64-3.68a14.13,14.13,0,0,0,8.42,2.81c4,0,5.64-1.42,5.64-3.32,0-5.5-15.15-1.89-15.15-11.36,0-4.12,3.28-7.61,10.27-7.61a16.1,16.1,0,0,1,8.49,2.26l-1.5,3.68a14.12,14.12,0,0,0-7-2c-3.93,0-5.53,1.53-5.53,3.46,0,5.43,15.11,1.89,15.11,11.25,0,4.08-3.31,7.58-10.3,7.58C183.54,399,179.57,397.74,177.45,395.92Z"/><path class="cls-1" d="M238.92,373.12h4.73v25.5h-4.73Z"/><path class="cls-1" d="M304.35,385.58h4.48v10.16a16.13,16.13,0,0,1-10,3.24c-7.9,0-13.73-5.5-13.73-13.11s5.83-13.11,13.8-13.11c4.27,0,7.84,1.42,10.24,4.15l-3,2.91a9.47,9.47,0,0,0-7-2.91c-5.42,0-9.25,3.68-9.25,9s3.83,9,9.22,9a10.36,10.36,0,0,0,5.24-1.31Z"/><path class="cls-1" d="M374.12,373.12v25.5h-3.9l-14.06-17.27v17.27h-4.7v-25.5h3.9l14.06,17.26V373.12Z"/><path class="cls-1" d="M211.34,346.74c-88.37,0-160.26-71.89-160.26-160.26S123,26.22,211.34,26.22,371.61,98.11,371.61,186.48,299.71,346.74,211.34,346.74Zm0-316.62C125.13,30.12,55,100.27,55,186.48s70.14,156.36,156.35,156.36S367.7,272.7,367.7,186.48,297.56,30.12,211.34,30.12Z"/><path class="cls-1" d="M180.93,187.17H145.38l.21-3.52V95.47h31.77a22,22,0,0,1,11,41.08c10.43,3.19,18,13.26,18,25.16A25.49,25.49,0,0,1,180.93,187.17Zm-31.44-3.91h31.44a21.58,21.58,0,0,0,21.55-21.55c0-12.3-9.5-22.31-21.17-22.31l-3,.07-1,0,0-3.91.85,0a18.1,18.1,0,0,0-.81-36.19H149.49Z"/><path class="cls-1" d="M277.31,185.21H273.4v-63a22.82,22.82,0,1,0-45.64,0v63h-3.91v-63a26.73,26.73,0,0,1,53.46,0Z"/><circle class="cls-1" cx="250.58" cy="154.12" r="3.29"/><rect class="cls-1" x="248.63" y="200.14" width="3.91" height="77.36"/><polygon class="cls-1" points="198.9 277.19 199.12 277.5 199.12 277.19 198.9 277.19"/><polygon class="cls-1" points="199.12 201.09 195.3 201.09 195.3 265.43 149.99 201.09 146 201.09 146 270.85 149.82 270.85 149.82 207.49 194.45 270.87 199.12 270.87 199.12 201.09"/></svg>