<svg id="Layer_1" data-name="Layer 1" xmlns="http://www.w3.org/2000/svg" viewBox="0 0 595.28 841.89"><defs><style>.cls-1{fill:#1d1d1b;}.cls-2{fill:#050707;}.cls-3{fill:#fff;}</style></defs><path class="cls-1" d="M190.49,292.59h7.44c5.53,0,9.3,3.4,9.3,8.51s-3.77,8.52-9.3,8.52h-7.44Zm7.3,14.35c3.79,0,6.25-2.31,6.25-5.84s-2.46-5.84-6.25-5.84h-4.14v11.68Z"/><path class="cls-1" d="M247.71,307v2.65H234.93v-17h12.44v2.65H238.1v4.43h8.22v2.6H238.1V307Z"/><path class="cls-1" d="M274.15,307.82l1.09-2.46a9.41,9.41,0,0,0,5.62,1.88c2.66,0,3.78-.95,3.78-2.22,0-3.67-10.13-1.26-10.13-7.59,0-2.75,2.19-5.09,6.86-5.09a10.84,10.84,0,0,1,5.68,1.51l-1,2.46a9.49,9.49,0,0,0-4.7-1.34c-2.63,0-3.7,1-3.7,2.31,0,3.63,10.1,1.27,10.1,7.52,0,2.73-2.21,5.07-6.89,5.07A10.94,10.94,0,0,1,274.15,307.82Z"/><path class="cls-1" d="M315.23,292.59h3.17v17h-3.17Z"/><path class="cls-1" d="M359,300.91h3v6.79a10.84,10.84,0,0,1-6.67,2.17c-5.28,0-9.18-3.68-9.18-8.77s3.9-8.76,9.23-8.76a8.81,8.81,0,0,1,6.84,2.78l-2,1.94a6.31,6.31,0,0,0-4.7-1.94,6,6,0,1,0,0,12,6.78,6.78,0,0,0,3.5-.88Z"/><path class="cls-1" d="M405.61,292.59v17H403l-9.4-11.53v11.53h-3.14v-17h2.61l9.39,11.53V292.59Z"/><path class="cls-1" d="M296.8,274.94A107.14,107.14,0,1,1,403.94,167.81,107.25,107.25,0,0,1,296.8,274.94Zm0-211.66A104.53,104.53,0,1,0,401.33,167.81,104.64,104.64,0,0,0,296.8,63.28Z"/><path class="cls-1" d="M276.47,168.27H252.7l.14-2.35V107h21.24a14.71,14.71,0,0,1,7.34,27.46,17.46,17.46,0,0,1,12.06,16.82A17,17,0,0,1,276.47,168.27Zm-21-2.61h21a14.43,14.43,0,0,0,14.4-14.41c0-8.22-6.35-14.91-14.15-14.91l-2,0h-.63l0-2.61h.57a12.1,12.1,0,0,0-.54-24.19H255.45Z"/><path class="cls-1" d="M340.9,167h-2.61V124.83a15.26,15.26,0,0,0-30.52,0V167h-2.61V124.83a17.87,17.87,0,0,1,35.74,0Z"/><circle class="cls-1" cx="323.03" cy="146.17" r="2.2"/><rect class="cls-1" x="321.72" y="176.94" width="2.61" height="51.72"/><polygon class="cls-1" points="288.49 228.45 288.63 228.65 288.63 228.45 288.49 228.45"/><polygon class="cls-1" points="288.63 177.58 286.07 177.58 286.07 220.59 255.79 177.58 253.12 177.58 253.12 224.21 255.67 224.21 255.67 181.85 285.51 224.22 288.63 224.22 288.63 177.58"/></svg>